<svg xmlns="http://www.w3.org/2000/svg" xmlns:xlink="http://www.w3.org/1999/xlink" version="1.0" x="0" y="0" width="2400" height="1363.2925463175407" viewBox="82.75939346313477 75.4439714050293 174.48121307373046 99.11205718994141" preserveAspectRatio="xMidYMid meet" color-interpolation-filters="sRGB"><g><defs><linearGradient id="92" x1="0%" y1="0%" x2="100%" y2="0%"><stop offset="0%" stop-color="#fa71cd"></stop> <stop offset="100%" stop-color="#9b59b6"></stop></linearGradient><linearGradient id="93" x1="0%" y1="0%" x2="100%" y2="0%"><stop offset="0%" stop-color="#f9d423"></stop> <stop offset="100%" stop-color="#f83600"></stop></linearGradient><linearGradient id="94" x1="0%" y1="0%" x2="100%" y2="0%"><stop offset="0%" stop-color="#0064d2"></stop> <stop offset="100%" stop-color="#1cb0f6"></stop></linearGradient><linearGradient id="95" x1="0%" y1="0%" x2="100%" y2="0%"><stop offset="0%" stop-color="#f00978"></stop> <stop offset="100%" stop-color="#3f51b1"></stop></linearGradient><linearGradient id="96" x1="0%" y1="0%" x2="100%" y2="0%"><stop offset="0%" stop-color="#7873f5"></stop> <stop offset="100%" stop-color="#ec77ab"></stop></linearGradient><linearGradient id="97" x1="0%" y1="0%" x2="100%" y2="0%"><stop offset="0%" stop-color="#f9d423"></stop> <stop offset="100%" stop-color="#e14fad"></stop></linearGradient><linearGradient id="98" x1="0%" y1="0%" x2="100%" y2="0%"><stop offset="0%" stop-color="#009efd"></stop> <stop offset="100%" stop-color="#2af598"></stop></linearGradient><linearGradient id="99" x1="0%" y1="0%" x2="100%" y2="0%"><stop offset="0%" stop-color="#ffcc00"></stop> <stop offset="100%" stop-color="#00b140"></stop></linearGradient><linearGradient id="100" x1="0%" y1="0%" x2="100%" y2="0%"><stop offset="0%" stop-color="#d51007"></stop> <stop offset="100%" stop-color="#ff8177"></stop></linearGradient><linearGradient id="102" x1="0%" y1="0%" x2="100%" y2="0%"><stop offset="0%" stop-color="#a2b6df"></stop> <stop offset="100%" stop-color="#0c3483"></stop></linearGradient><linearGradient id="103" x1="0%" y1="0%" x2="100%" y2="0%"><stop offset="0%" stop-color="#7ac5d8"></stop> <stop offset="100%" stop-color="#eea2a2"></stop></linearGradient><linearGradient id="104" x1="0%" y1="0%" x2="100%" y2="0%"><stop offset="0%" stop-color="#00ecbc"></stop> <stop offset="100%" stop-color="#007adf"></stop></linearGradient><linearGradient id="105" x1="0%" y1="0%" x2="100%" y2="0%"><stop offset="0%" stop-color="#b88746"></stop> <stop offset="100%" stop-color="#fdf5a6"></stop></linearGradient></defs><g class="iconmbgsvg" transform="translate(84.46999360918998,77.15457153320312)"><g fill="#ffffff" hollow-target="text"><g transform="translate(7.530006408691406,0)" mask="url(#acc1d20a-8666-44fa-b4c6-a7e181cb2652)"><g><rect fill="#ffffff" fill-opacity="0" stroke-width="2" x="0" y="0" width="93.99999999999999" height="95.690857451162" class="image-rect"></rect> <svg filter="url(#colors9393225319)" x="0" y="0" width="93.99999999999999" height="95.690857451162" filtersec="colorsf2663000636" class="image-svg-svg primary" style="overflow: visible;"><svg xmlns="http://www.w3.org/2000/svg" viewBox="0.47827911376953125 0.5585556030273438 133.09857177734375 135.49234008789062"><path d="M33.218 35.656C64.87 2.88 105.664-9.072 124.337 8.959c10.944 10.569 11.859 29.092 4.369 49.214 4.88-14.783 3.86-28.39-4.198-37.03-15.443-16.56-50.883-8.612-79.157 17.754-28.274 26.366-38.676 61.165-23.233 77.725 15.443 16.561 50.883 8.612 79.157-17.754 6.008-5.603 11.21-11.586 15.527-17.695-4.488 6.756-9.83 13.427-15.966 19.78-31.65 32.776-72.446 44.729-91.118 26.697-18.672-18.031-8.15-59.219 23.5-91.994z" fill="#333" fill-rule="evenodd"></path></svg></svg> <defs><filter id="colors9393225319"><feColorMatrix type="matrix" values="0 0 0 0 0.04296875  0 0 0 0 0.74609375  0 0 0 0 0.390625  0 0 0 1 0" class="icon-feColorMatrix "></feColorMatrix></filter> <filter id="colorsf2663000636"><feColorMatrix type="matrix" values="0 0 0 0 0.99609375  0 0 0 0 0.99609375  0 0 0 0 0.99609375  0 0 0 1 0" class="icon-fecolormatrix"></feColorMatrix></filter> <filter id="colorsb971382467"><feColorMatrix type="matrix" values="0 0 0 0 0  0 0 0 0 0  0 0 0 0 0  0 0 0 1 0" class="icon-fecolormatrix"></feColorMatrix></filter></defs></g></g> <g transform="translate(0,32.58773612976074)"><g fill-rule="" class="tp-name" transform="translate(0,0)"><g transform="scale(1.2000000000000002)"><g><path d="M9.07 0L9.07-23.02 0.17-23.02 0.17-28.01 24.32-28.01 24.32-23.02 15.04-23.02 15.04 0 9.07 0ZM38.14-10.63L33.35-10.63 33.35 0 27.38 0 27.38-28.01 41.08-28.01Q46.96-28.01 49.27-26.5L49.27-26.5Q50.86-25.49 51.72-23.84 52.58-22.18 52.58-20.2L52.58-20.2Q52.58-16.21 50.57-14.03L50.57-14.03Q49.31-12.73 47.25-12.05L47.25-12.05Q48.89-11.47 49.73-10.82 50.57-10.16 51.24-8.9L51.24-8.9Q51.74-7.9 51.98-6.97 52.21-6.05 52.33-4.24L52.33-4.24Q52.58-1.22 53 0L53 0 46.33 0Q46.03-0.97 45.7-3.99L45.7-3.99Q45.49-6.43 44.84-7.73 44.18-9.03 42.88-9.79L42.88-9.79Q41.24-10.67 38.14-10.63L38.14-10.63ZM33.35-23.02L33.35-15.62 41.71-15.62Q43.81-15.62 44.69-16.25L44.69-16.25Q46.03-17.18 46.03-19.49L46.03-19.49Q46.03-22.05 44.02-22.76L44.02-22.76Q43.3-23.02 41.71-23.02L41.71-23.02 33.35-23.02ZM61.61 0L54.64 0 66.23-28.01 73.08-28.01 84.67 0 77.7 0 74.97-6.47 64.34-6.47 61.61 0ZM73.67-11.47L69.68-21.25 65.69-11.47 73.67-11.47ZM104.83 0L93.41-20.54 93.41 0 87.7 0 87.7-28.01 95.34-28.01 106.47-7.14 106.47-28.01 112.14-28.01 112.14 0 104.83 0ZM131.8 0L117.73 0 117.73-5 130.54-5Q133.6-5 134.61-5.59L134.61-5.59Q136.08-6.47 136.08-8.23L136.08-8.23Q136.08-10.29 134.36-11.21L134.36-11.21Q133.39-11.76 131.25-11.76L131.25-11.76 126.04-11.76Q121.3-11.76 119.2-13.48L119.2-13.48Q117.89-14.57 117.16-16.21 116.42-17.85 116.42-19.74L116.42-19.74Q116.42-22.68 118.15-25.12L118.15-25.12Q119.83-27.47 123.52-27.89L123.52-27.89Q124.78-28.01 127.26-28.01L127.26-28.01 141.16-28.01 141.16-23.02 128.6-23.02Q125.79-22.97 124.87-22.76L124.87-22.76Q122.98-22.3 122.98-19.91L122.98-19.91Q122.98-17.89 124.57-17.22L124.57-17.22Q125.62-16.72 128.1-16.72L128.1-16.72 132.59-16.72Q136.04-16.72 137.72-16.13L137.72-16.13Q140.7-15.12 141.83-12.6L141.83-12.6Q142.72-10.58 142.72-8.27L142.72-8.27Q142.72-5.71 141.54-3.7L141.54-3.7Q139.9-0.84 136.63-0.25L136.63-0.25Q135.03 0 131.8 0L131.8 0Z" transform="translate(-0.17000001668930054, 28.010000228881836)"></path></g> </g></g> <g fill-rule="" class="tp-slogan" fill="#ffffff" transform="translate(107.50890731811523,37.612003326416016)"> <g transform="scale(1, 1)"><g transform="scale(1.06)"><path d="M12.47-5.76L11.75-4.50L11.65-4.56L11.65-3.29L7.57-3.29L7.46-2.80L11.25-2.80Q11.23-2.61 11.20-2.30Q11.17-1.99 11.12-1.64Q11.08-1.29 11.04-0.94Q11.00-0.60 10.96-0.36L10.96-0.36Q10.89 0.09 10.78 0.38Q10.66 0.68 10.44 0.85Q10.22 1.03 9.87 1.11Q9.53 1.20 9.02 1.24L9.02 1.24L8.24 1.30L7.79-0.09L8.80-0.17Q9.13-0.20 9.28-0.27Q9.43-0.35 9.48-0.61L9.48-0.61Q9.49-0.66 9.51-0.77Q9.53-0.87 9.56-0.99Q9.58-1.11 9.60-1.22Q9.62-1.34 9.63-1.42L9.63-1.42L5.77-1.42L6.11-3.29L5.45-3.29L5.45-4.73L11.40-4.73Q10.71-5.21 10.11-5.85L10.11-5.85L10.11-5.21L6.80-5.21L6.80-5.67Q6.58-5.43 6.32-5.21Q6.07-4.99 5.79-4.76L5.79-4.76L5.14-5.86L5.14-5.47L4.28-5.47L4.28-4.24L5.17-4.24L5.17-2.73L4.28-2.73L4.28-1.30L5.36-1.48L5.40-0.79L5.45-0.01Q5.25 0.01 4.88 0.07Q4.51 0.12 4.06 0.19Q3.60 0.26 3.10 0.34Q2.60 0.42 2.14 0.49Q1.68 0.57 1.31 0.64Q0.94 0.70 0.73 0.74L0.73 0.74L0.60-0.74Q0.81-0.77 1.13-0.82L1.13-0.82L1.13-4.95L2.47-4.89L2.47-1.01L2.95-1.09L2.95-5.47L1.25-5.47L1.25-9.91L5.14-9.91L5.14-6.15Q5.67-6.54 6.06-6.94Q6.46-7.33 6.77-7.80L6.77-7.80L5.50-7.80L5.50-9.29L7.46-9.29Q7.54-9.56 7.62-9.83Q7.70-10.10 7.76-10.41L7.76-10.41L9.10-10.22Q9.05-9.97 9.00-9.74Q8.94-9.52 8.88-9.29L8.88-9.29L11.79-9.29L11.79-7.80L10.27-7.80Q10.67-7.15 11.23-6.66Q11.78-6.16 12.47-5.76L12.47-5.76ZM2.63-8.36L2.63-7.02L3.80-7.02L3.80-8.36L2.63-8.36ZM7.66-6.67L9.46-6.67Q9.07-7.22 8.81-7.80L8.81-7.80L8.33-7.80Q8.06-7.20 7.66-6.67L7.66-6.67ZM26.14-2.74L25.32-1.24Q24.71-1.39 24.14-1.61Q23.57-1.83 23.02-2.09L23.02-2.09L23.02 1.47L21.35 1.47L21.35-2.74L21.89-2.72Q21.37-3.04 20.94-3.37Q20.51-3.71 20.20-4.00L20.20-4.00Q19.92-3.72 19.43-3.39Q18.95-3.06 18.32-2.72L18.32-2.72L19.17-2.67L19.17-2.22Q19.17-1.65 19.02-1.12Q18.88-0.59 18.54-0.09Q18.20 0.40 17.65 0.86Q17.11 1.33 16.31 1.76L16.31 1.76L15.31 0.39Q15.99 0.09 16.42-0.20Q16.85-0.48 17.09-0.79Q17.33-1.11 17.42-1.45Q17.51-1.79 17.51-2.22L17.51-2.22L17.51-2.29Q16.94-2.02 16.31-1.74Q15.68-1.47 15.00-1.22L15.00-1.22L14.21-2.72Q15.46-3.06 16.52-3.54Q17.58-4.02 18.43-4.62L18.43-4.62L15.55-4.62L15.55-10.09L24.83-10.09L24.83-4.62L21.81-4.62Q22.65-4.02 23.72-3.56Q24.79-3.11 26.14-2.74L26.14-2.74ZM19.43-8.70L17.12-8.70L17.12-8.01L19.43-8.01L19.43-8.70ZM23.24-8.01L23.24-8.70L20.96-8.70L20.96-8.01L23.24-8.01ZM17.12-6.68L17.12-6.01L19.43-6.01L19.43-6.68L17.12-6.68ZM20.96-6.01L23.24-6.01L23.24-6.68L20.96-6.68L20.96-6.01ZM38.06-2.37L39.65-1.92Q39.65-1.78 39.63-1.60Q39.61-1.42 39.59-1.22Q39.57-1.03 39.55-0.84Q39.53-0.65 39.51-0.51L39.51-0.51Q39.43-0.05 39.30 0.24Q39.17 0.53 38.94 0.71Q38.71 0.88 38.35 0.97Q38.00 1.05 37.46 1.08L37.46 1.08Q36.97 1.11 36.51 1.11Q36.05 1.11 35.55 1.08L35.55 1.08Q35.09 1.05 34.74 0.96Q34.40 0.86 34.18 0.66Q33.95 0.46 33.84 0.12Q33.73-0.21 33.73-0.72L33.73-0.72L33.73-3.39Q33.46-2.67 33.06-2.02Q32.65-1.37 32.10-0.76Q31.55-0.16 30.84 0.41Q30.13 0.98 29.24 1.55L29.24 1.55L28.04 0.03Q28.95-0.49 29.66-1.03Q30.37-1.56 30.89-2.13Q31.41-2.70 31.76-3.34Q32.11-3.98 32.32-4.72L32.32-4.72L28.78-4.72L28.78-6.29L32.63-6.29Q32.65-6.50 32.67-6.72Q32.68-6.94 32.69-7.16L32.69-7.16Q32.71-7.27 32.71-7.59Q32.72-7.92 32.73-8.26L32.73-8.26L29.51-8.26L29.51-9.80L38.41-9.80L38.41-8.26L34.45-8.26Q34.44-7.88 34.44-7.53Q34.44-7.18 34.42-7.05L34.42-7.05Q34.41-6.85 34.40-6.66Q34.38-6.47 34.37-6.29L34.37-6.29L39.25-6.29L39.25-4.72L34.12-4.72Q34.10-4.58 34.06-4.45Q34.03-4.33 33.99-4.20L33.99-4.20L35.40-4.15L35.40-1.17Q35.40-0.79 35.55-0.65Q35.71-0.51 36.07-0.47L36.07-0.47Q36.36-0.44 36.59-0.44Q36.81-0.44 37.09-0.47L37.09-0.47Q37.35-0.49 37.50-0.53Q37.65-0.57 37.74-0.65Q37.83-0.73 37.87-0.86Q37.92-0.99 37.96-1.20L37.96-1.20Q37.97-1.29 37.99-1.45Q38.01-1.61 38.03-1.78Q38.05-1.95 38.06-2.11Q38.06-2.26 38.06-2.37L38.06-2.37ZM42.48-8.75L42.48-10.11L45.98-10.11L45.98-6.68L43.96-6.68L43.89-5.88L45.94-5.88Q45.94-5.75 45.93-5.31Q45.93-4.88 45.91-4.28Q45.90-3.69 45.89-3.02Q45.87-2.35 45.87-1.76Q45.86-1.17 45.85-0.73Q45.84-0.30 45.84-0.18L45.84-0.18Q45.82 0.22 45.74 0.47Q45.67 0.72 45.48 0.86Q45.30 1.01 45.00 1.09Q44.70 1.16 44.28 1.21L44.28 1.21L43.42 1.30L43.04 0.01L43.89-0.07Q44.11-0.09 44.24-0.12Q44.37-0.16 44.44-0.22Q44.51-0.29 44.54-0.40Q44.56-0.51 44.57-0.68L44.57-0.68Q44.57-0.77 44.59-1.06Q44.60-1.35 44.61-1.76Q44.63-2.17 44.64-2.63Q44.65-3.08 44.67-3.49Q44.68-3.90 44.68-4.20Q44.69-4.50 44.69-4.59L44.69-4.59L42.36-4.59L42.59-7.93L44.56-7.93L44.56-8.75L42.48-8.75ZM53.05-10.10L53.05-8.96L46.39-8.96L46.39-10.10L53.05-10.10ZM52.88-5.49L46.42-5.49L46.42-8.59L52.88-8.59L52.88-5.49ZM48.97-7.75L47.84-7.75L47.84-7.38L48.97-7.38L48.97-7.75ZM51.41-7.38L51.41-7.75L50.29-7.75L50.29-7.38L51.41-7.38ZM47.84-6.67L47.84-6.31L48.97-6.31L48.97-6.67L47.84-6.67ZM50.29-6.31L51.41-6.31L51.41-6.67L50.29-6.67L50.29-6.31ZM46.10-5.12L53.47-5.12L53.47-4.20L46.10-4.20L46.10-5.12ZM44.52-1.90L44.54-1.09Q44.41-1.08 44.06-1.03Q43.72-0.98 43.33-0.90Q42.94-0.83 42.58-0.77Q42.22-0.70 42.07-0.66L42.07-0.66L41.97-1.79Q42.08-1.82 42.35-1.86Q42.62-1.90 42.96-1.95L42.96-1.95L42.96-2.73L42.31-2.73L42.31-3.85L42.96-3.85L42.96-4.38L43.98-4.32L43.98-3.85L44.52-3.85L44.52-2.73L43.98-2.73L43.98-2.13Q44.16-2.16 44.29-2.18Q44.43-2.21 44.52-2.24L44.52-2.24L44.52-1.90ZM46.37-3.84L52.93-3.84L52.93-0.53L46.37-0.53L46.37-3.84ZM48.97-2.98L47.80-2.98L47.80-2.57L48.97-2.57L48.97-2.98ZM51.46-2.57L51.46-2.98L50.29-2.98L50.29-2.57L51.46-2.57ZM47.80-1.79L47.80-1.42L48.97-1.42L48.97-1.79L47.80-1.79ZM50.29-1.42L51.46-1.42L51.46-1.79L50.29-1.79L50.29-1.42ZM46.00 0.96L46.00-0.17L53.35-0.17L53.35 0.96L46.00 0.96Z" transform="translate(-0.5980000000000001, 10.413)"></path></g></g></g></g></g></g><mask id="acc1d20a-8666-44fa-b4c6-a7e181cb2652"><g fill="white"><g><rect fill-opacity="1" stroke-width="2" x="0" y="0" width="93.99999999999999" height="95.690857451162" class="image-rect"></rect> <svg x="0" y="0" width="93.99999999999999" height="95.690857451162" class="image-svg-svg primary" style="overflow: visible;" filter="url(#colorsf2663000636)"><svg xmlns="http://www.w3.org/2000/svg" viewBox="0.47827911376953125 0.5585556030273438 133.09857177734375 135.49234008789062"><path d="M33.218 35.656C64.87 2.88 105.664-9.072 124.337 8.959c10.944 10.569 11.859 29.092 4.369 49.214 4.88-14.783 3.86-28.39-4.198-37.03-15.443-16.56-50.883-8.612-79.157 17.754-28.274 26.366-38.676 61.165-23.233 77.725 15.443 16.561 50.883 8.612 79.157-17.754 6.008-5.603 11.21-11.586 15.527-17.695-4.488 6.756-9.83 13.427-15.966 19.78-31.65 32.776-72.446 44.729-91.118 26.697-18.672-18.031-8.15-59.219 23.5-91.994z" fill-rule="evenodd"></path></svg></svg> <defs> </defs></g></g> <g transform="translate(-7.530006408691406,32.58773612976074)" fill="black" stroke="black" stroke-width="6" stroke-linejoin="round"><g fill-rule="" class="tp-name" transform="translate(0,0)"><g transform="scale(1.2000000000000002)"><g><path d="M9.07 0L9.07-23.02 0.17-23.02 0.17-28.01 24.32-28.01 24.32-23.02 15.04-23.02 15.04 0 9.07 0ZM38.14-10.63L33.35-10.63 33.35 0 27.38 0 27.38-28.01 41.08-28.01Q46.96-28.01 49.27-26.5L49.27-26.5Q50.86-25.49 51.72-23.84 52.58-22.18 52.58-20.2L52.58-20.2Q52.58-16.21 50.57-14.03L50.57-14.03Q49.31-12.73 47.25-12.05L47.25-12.05Q48.89-11.47 49.73-10.82 50.57-10.16 51.24-8.9L51.24-8.9Q51.74-7.9 51.98-6.97 52.21-6.05 52.33-4.24L52.33-4.24Q52.58-1.22 53 0L53 0 46.33 0Q46.03-0.97 45.7-3.99L45.7-3.99Q45.49-6.43 44.84-7.73 44.18-9.03 42.88-9.79L42.88-9.79Q41.24-10.67 38.14-10.63L38.14-10.63ZM33.35-23.02L33.35-15.62 41.71-15.62Q43.81-15.62 44.69-16.25L44.69-16.25Q46.03-17.18 46.03-19.49L46.03-19.49Q46.03-22.05 44.02-22.76L44.02-22.76Q43.3-23.02 41.71-23.02L41.71-23.02 33.35-23.02ZM61.61 0L54.64 0 66.23-28.01 73.08-28.01 84.67 0 77.7 0 74.97-6.47 64.34-6.47 61.61 0ZM73.67-11.47L69.68-21.25 65.69-11.47 73.67-11.47ZM104.83 0L93.41-20.54 93.41 0 87.7 0 87.7-28.01 95.34-28.01 106.47-7.14 106.47-28.01 112.14-28.01 112.14 0 104.83 0ZM131.8 0L117.73 0 117.73-5 130.54-5Q133.6-5 134.61-5.59L134.61-5.59Q136.08-6.47 136.08-8.23L136.08-8.23Q136.08-10.29 134.36-11.21L134.36-11.21Q133.39-11.76 131.25-11.76L131.25-11.76 126.04-11.76Q121.3-11.76 119.2-13.48L119.2-13.48Q117.89-14.57 117.16-16.21 116.42-17.85 116.42-19.74L116.42-19.74Q116.42-22.68 118.15-25.12L118.15-25.12Q119.83-27.47 123.52-27.89L123.52-27.89Q124.78-28.01 127.26-28.01L127.26-28.01 141.16-28.01 141.16-23.02 128.6-23.02Q125.79-22.97 124.87-22.76L124.87-22.76Q122.98-22.3 122.98-19.91L122.98-19.91Q122.98-17.89 124.57-17.22L124.57-17.22Q125.62-16.72 128.1-16.72L128.1-16.72 132.59-16.72Q136.04-16.72 137.72-16.13L137.72-16.13Q140.7-15.12 141.83-12.6L141.83-12.6Q142.72-10.58 142.72-8.27L142.72-8.27Q142.72-5.71 141.54-3.7L141.54-3.7Q139.9-0.84 136.63-0.25L136.63-0.25Q135.03 0 131.8 0L131.8 0Z" transform="translate(-0.17000001668930054, 28.010000228881836)"></path></g> </g></g> <g fill-rule="" class="tp-slogan" transform="translate(107.50890731811523,37.612003326416016)" fill="white"> <g transform="scale(1, 1)"><g transform="scale(1.06)"><path d="M12.47-5.76L11.75-4.50L11.65-4.56L11.65-3.29L7.57-3.29L7.46-2.80L11.25-2.80Q11.23-2.61 11.20-2.30Q11.17-1.99 11.12-1.64Q11.08-1.29 11.04-0.94Q11.00-0.60 10.96-0.36L10.96-0.36Q10.89 0.09 10.78 0.38Q10.66 0.68 10.44 0.85Q10.22 1.03 9.87 1.11Q9.53 1.20 9.02 1.24L9.02 1.24L8.24 1.30L7.79-0.09L8.80-0.17Q9.13-0.20 9.28-0.27Q9.43-0.35 9.48-0.61L9.48-0.61Q9.49-0.66 9.51-0.77Q9.53-0.87 9.56-0.99Q9.58-1.11 9.60-1.22Q9.62-1.34 9.63-1.42L9.63-1.42L5.77-1.42L6.11-3.29L5.45-3.29L5.45-4.73L11.40-4.73Q10.71-5.21 10.11-5.85L10.11-5.85L10.11-5.21L6.80-5.21L6.80-5.67Q6.58-5.43 6.32-5.21Q6.07-4.99 5.79-4.76L5.79-4.76L5.14-5.86L5.14-5.47L4.28-5.47L4.28-4.24L5.17-4.24L5.17-2.73L4.28-2.73L4.28-1.30L5.36-1.48L5.40-0.79L5.45-0.01Q5.25 0.01 4.88 0.07Q4.51 0.12 4.06 0.19Q3.60 0.26 3.10 0.34Q2.60 0.42 2.14 0.49Q1.68 0.57 1.31 0.64Q0.94 0.70 0.73 0.74L0.73 0.74L0.60-0.74Q0.81-0.77 1.13-0.82L1.13-0.82L1.13-4.95L2.47-4.89L2.47-1.01L2.95-1.09L2.95-5.47L1.25-5.47L1.25-9.91L5.14-9.91L5.14-6.15Q5.67-6.54 6.06-6.94Q6.46-7.33 6.77-7.80L6.77-7.80L5.50-7.80L5.50-9.29L7.46-9.29Q7.54-9.56 7.62-9.83Q7.70-10.10 7.76-10.41L7.76-10.41L9.10-10.22Q9.05-9.97 9.00-9.74Q8.94-9.52 8.88-9.29L8.88-9.29L11.79-9.29L11.79-7.80L10.27-7.80Q10.67-7.15 11.23-6.66Q11.78-6.16 12.47-5.76L12.47-5.76ZM2.63-8.36L2.63-7.02L3.80-7.02L3.80-8.36L2.63-8.36ZM7.66-6.67L9.46-6.67Q9.07-7.22 8.81-7.80L8.81-7.80L8.33-7.80Q8.06-7.20 7.66-6.67L7.66-6.67ZM26.14-2.74L25.32-1.24Q24.71-1.39 24.14-1.61Q23.57-1.83 23.02-2.09L23.02-2.09L23.02 1.47L21.35 1.47L21.35-2.74L21.89-2.72Q21.37-3.04 20.94-3.37Q20.51-3.71 20.20-4.00L20.20-4.00Q19.92-3.72 19.43-3.39Q18.95-3.06 18.32-2.72L18.32-2.72L19.17-2.67L19.17-2.22Q19.17-1.65 19.02-1.12Q18.88-0.59 18.54-0.09Q18.20 0.40 17.65 0.86Q17.11 1.33 16.31 1.76L16.31 1.76L15.31 0.39Q15.99 0.09 16.42-0.20Q16.85-0.48 17.09-0.79Q17.33-1.11 17.42-1.45Q17.51-1.79 17.51-2.22L17.51-2.22L17.51-2.29Q16.94-2.02 16.31-1.74Q15.68-1.47 15.00-1.22L15.00-1.22L14.21-2.72Q15.46-3.06 16.52-3.54Q17.58-4.02 18.43-4.62L18.43-4.62L15.55-4.62L15.55-10.09L24.83-10.09L24.83-4.62L21.81-4.62Q22.65-4.02 23.72-3.56Q24.79-3.11 26.14-2.74L26.14-2.74ZM19.43-8.70L17.12-8.70L17.12-8.01L19.43-8.01L19.43-8.70ZM23.24-8.01L23.24-8.70L20.96-8.70L20.96-8.01L23.24-8.01ZM17.12-6.68L17.12-6.01L19.43-6.01L19.43-6.68L17.12-6.68ZM20.96-6.01L23.24-6.01L23.24-6.68L20.96-6.68L20.96-6.01ZM38.06-2.37L39.65-1.92Q39.65-1.78 39.63-1.60Q39.61-1.42 39.59-1.22Q39.57-1.03 39.55-0.84Q39.53-0.65 39.51-0.51L39.51-0.51Q39.43-0.05 39.30 0.24Q39.17 0.53 38.94 0.71Q38.71 0.88 38.35 0.97Q38.00 1.05 37.46 1.08L37.46 1.08Q36.97 1.11 36.51 1.11Q36.05 1.11 35.55 1.08L35.55 1.08Q35.09 1.05 34.74 0.96Q34.40 0.86 34.18 0.66Q33.95 0.46 33.84 0.12Q33.73-0.21 33.73-0.72L33.73-0.72L33.73-3.39Q33.46-2.67 33.06-2.02Q32.65-1.37 32.10-0.76Q31.55-0.16 30.84 0.41Q30.13 0.98 29.24 1.55L29.24 1.55L28.04 0.03Q28.95-0.49 29.66-1.03Q30.37-1.56 30.89-2.13Q31.41-2.70 31.76-3.34Q32.11-3.98 32.32-4.72L32.32-4.72L28.78-4.72L28.78-6.29L32.63-6.29Q32.65-6.50 32.67-6.72Q32.68-6.94 32.69-7.16L32.69-7.16Q32.71-7.27 32.71-7.59Q32.72-7.92 32.73-8.26L32.73-8.26L29.51-8.26L29.51-9.80L38.41-9.80L38.41-8.26L34.45-8.26Q34.44-7.88 34.44-7.53Q34.44-7.18 34.42-7.05L34.42-7.05Q34.41-6.85 34.40-6.66Q34.38-6.47 34.37-6.29L34.37-6.29L39.25-6.29L39.25-4.72L34.12-4.72Q34.10-4.58 34.06-4.45Q34.03-4.33 33.99-4.20L33.99-4.20L35.40-4.15L35.40-1.17Q35.40-0.79 35.55-0.65Q35.71-0.51 36.07-0.47L36.07-0.47Q36.36-0.44 36.59-0.44Q36.81-0.44 37.09-0.47L37.09-0.47Q37.35-0.49 37.50-0.53Q37.65-0.57 37.74-0.65Q37.83-0.73 37.87-0.86Q37.92-0.99 37.96-1.20L37.96-1.20Q37.97-1.29 37.99-1.45Q38.01-1.61 38.03-1.78Q38.05-1.95 38.06-2.11Q38.06-2.26 38.06-2.37L38.06-2.37ZM42.48-8.75L42.48-10.11L45.98-10.11L45.98-6.68L43.96-6.68L43.89-5.88L45.94-5.88Q45.94-5.75 45.93-5.31Q45.93-4.88 45.91-4.28Q45.90-3.69 45.89-3.02Q45.87-2.35 45.87-1.76Q45.86-1.17 45.85-0.73Q45.84-0.30 45.84-0.18L45.84-0.18Q45.82 0.22 45.74 0.47Q45.67 0.72 45.48 0.86Q45.30 1.01 45.00 1.09Q44.70 1.16 44.28 1.21L44.28 1.21L43.42 1.30L43.04 0.01L43.89-0.07Q44.11-0.09 44.24-0.12Q44.37-0.16 44.44-0.22Q44.51-0.29 44.54-0.40Q44.56-0.51 44.57-0.68L44.57-0.68Q44.57-0.77 44.59-1.06Q44.60-1.35 44.61-1.76Q44.63-2.17 44.64-2.63Q44.65-3.08 44.67-3.49Q44.68-3.90 44.68-4.20Q44.69-4.50 44.69-4.59L44.69-4.59L42.36-4.59L42.59-7.93L44.56-7.93L44.56-8.75L42.48-8.75ZM53.05-10.10L53.05-8.96L46.39-8.96L46.39-10.10L53.05-10.10ZM52.88-5.49L46.42-5.49L46.42-8.59L52.88-8.59L52.88-5.49ZM48.97-7.75L47.84-7.75L47.84-7.38L48.97-7.38L48.97-7.75ZM51.41-7.38L51.41-7.75L50.29-7.75L50.29-7.38L51.41-7.38ZM47.84-6.67L47.84-6.31L48.97-6.31L48.97-6.67L47.84-6.67ZM50.29-6.31L51.41-6.31L51.41-6.67L50.29-6.67L50.29-6.31ZM46.10-5.12L53.47-5.12L53.47-4.20L46.10-4.20L46.10-5.12ZM44.52-1.90L44.54-1.09Q44.41-1.08 44.06-1.03Q43.72-0.98 43.33-0.90Q42.94-0.83 42.58-0.77Q42.22-0.70 42.07-0.66L42.07-0.66L41.97-1.79Q42.08-1.82 42.35-1.86Q42.62-1.90 42.96-1.95L42.96-1.95L42.96-2.73L42.31-2.73L42.31-3.85L42.96-3.85L42.96-4.38L43.98-4.32L43.98-3.85L44.52-3.85L44.52-2.73L43.98-2.73L43.98-2.13Q44.16-2.16 44.29-2.18Q44.43-2.21 44.52-2.24L44.52-2.24L44.52-1.90ZM46.37-3.84L52.93-3.84L52.93-0.53L46.37-0.53L46.37-3.84ZM48.97-2.98L47.80-2.98L47.80-2.57L48.97-2.57L48.97-2.98ZM51.46-2.57L51.46-2.98L50.29-2.98L50.29-2.57L51.46-2.57ZM47.80-1.79L47.80-1.42L48.97-1.42L48.97-1.79L47.80-1.79ZM50.29-1.42L51.46-1.42L51.46-1.79L50.29-1.79L50.29-1.42ZM46.00 0.96L46.00-0.17L53.35-0.17L53.35 0.96L46.00 0.96Z" transform="translate(-0.5980000000000001, 10.413)"></path></g></g></g></g></mask><defs v-gra="od"></defs></g></svg>