<svg xmlns="http://www.w3.org/2000/svg" xmlns:xlink="http://www.w3.org/1999/xlink" version="1.0" x="0" y="0" width="2400" height="1363.2925463175407" viewBox="82.75939346313477 75.4439714050293 174.48121307373046 99.11205718994141" preserveAspectRatio="xMidYMid meet" color-interpolation-filters="sRGB"><g><defs><linearGradient id="92" x1="0%" y1="0%" x2="100%" y2="0%"><stop offset="0%" stop-color="#fa71cd"></stop> <stop offset="100%" stop-color="#9b59b6"></stop></linearGradient><linearGradient id="93" x1="0%" y1="0%" x2="100%" y2="0%"><stop offset="0%" stop-color="#f9d423"></stop> <stop offset="100%" stop-color="#f83600"></stop></linearGradient><linearGradient id="94" x1="0%" y1="0%" x2="100%" y2="0%"><stop offset="0%" stop-color="#0064d2"></stop> <stop offset="100%" stop-color="#1cb0f6"></stop></linearGradient><linearGradient id="95" x1="0%" y1="0%" x2="100%" y2="0%"><stop offset="0%" stop-color="#f00978"></stop> <stop offset="100%" stop-color="#3f51b1"></stop></linearGradient><linearGradient id="96" x1="0%" y1="0%" x2="100%" y2="0%"><stop offset="0%" stop-color="#7873f5"></stop> <stop offset="100%" stop-color="#ec77ab"></stop></linearGradient><linearGradient id="97" x1="0%" y1="0%" x2="100%" y2="0%"><stop offset="0%" stop-color="#f9d423"></stop> <stop offset="100%" stop-color="#e14fad"></stop></linearGradient><linearGradient id="98" x1="0%" y1="0%" x2="100%" y2="0%"><stop offset="0%" stop-color="#009efd"></stop> <stop offset="100%" stop-color="#2af598"></stop></linearGradient><linearGradient id="99" x1="0%" y1="0%" x2="100%" y2="0%"><stop offset="0%" stop-color="#ffcc00"></stop> <stop offset="100%" stop-color="#00b140"></stop></linearGradient><linearGradient id="100" x1="0%" y1="0%" x2="100%" y2="0%"><stop offset="0%" stop-color="#d51007"></stop> <stop offset="100%" stop-color="#ff8177"></stop></linearGradient><linearGradient id="102" x1="0%" y1="0%" x2="100%" y2="0%"><stop offset="0%" stop-color="#a2b6df"></stop> <stop offset="100%" stop-color="#0c3483"></stop></linearGradient><linearGradient id="103" x1="0%" y1="0%" x2="100%" y2="0%"><stop offset="0%" stop-color="#7ac5d8"></stop> <stop offset="100%" stop-color="#eea2a2"></stop></linearGradient><linearGradient id="104" x1="0%" y1="0%" x2="100%" y2="0%"><stop offset="0%" stop-color="#00ecbc"></stop> <stop offset="100%" stop-color="#007adf"></stop></linearGradient><linearGradient id="105" x1="0%" y1="0%" x2="100%" y2="0%"><stop offset="0%" stop-color="#b88746"></stop> <stop offset="100%" stop-color="#fdf5a6"></stop></linearGradient></defs><g class="iconmbgsvg" transform="translate(84.46999360918998,77.15457153320312)"><g fill="#343c3e" hollow-target="text"><g transform="translate(7.530006408691406,0)" mask="url(#bc1ceeff-3a23-4855-a8d5-80e84eafc6b6)"><g><rect fill="#343c3e" fill-opacity="0" stroke-width="2" x="0" y="0" width="93.99999999999999" height="95.690857451162" class="image-rect"></rect> <svg filter="url(#colors8497563715)" x="0" y="0" width="93.99999999999999" height="95.690857451162" filtersec="colorsf3894769693" class="image-svg-svg primary" style="overflow: visible;"><svg xmlns="http://www.w3.org/2000/svg" viewBox="0.47827911376953125 0.5585556030273438 133.09857177734375 135.49234008789062"><path d="M33.218 35.656C64.87 2.88 105.664-9.072 124.337 8.959c10.944 10.569 11.859 29.092 4.369 49.214 4.88-14.783 3.86-28.39-4.198-37.03-15.443-16.56-50.883-8.612-79.157 17.754-28.274 26.366-38.676 61.165-23.233 77.725 15.443 16.561 50.883 8.612 79.157-17.754 6.008-5.603 11.21-11.586 15.527-17.695-4.488 6.756-9.83 13.427-15.966 19.78-31.65 32.776-72.446 44.729-91.118 26.697-18.672-18.031-8.15-59.219 23.5-91.994z" fill="#333" fill-rule="evenodd"></path></svg></svg> <defs><filter id="colors8497563715"><feColorMatrix type="matrix" values="0 0 0 0 0.04296875  0 0 0 0 0.74609375  0 0 0 0 0.390625  0 0 0 1 0" class="icon-feColorMatrix "></feColorMatrix></filter> <filter id="colorsf3894769693"><feColorMatrix type="matrix" values="0 0 0 0 0.99609375  0 0 0 0 0.99609375  0 0 0 0 0.99609375  0 0 0 1 0" class="icon-fecolormatrix"></feColorMatrix></filter> <filter id="colorsb2221993817"><feColorMatrix type="matrix" values="0 0 0 0 0  0 0 0 0 0  0 0 0 0 0  0 0 0 1 0" class="icon-fecolormatrix"></feColorMatrix></filter></defs></g></g> <g transform="translate(0,42.03942680358887)"><g fill-rule="" class="tp-name"><g transform="scale(1.2000000000000002)"><g><path d="M9.07 0L9.07-23.02 0.17-23.02 0.17-28.01 24.32-28.01 24.32-23.02 15.04-23.02 15.04 0 9.07 0ZM38.14-10.63L33.35-10.63 33.35 0 27.38 0 27.38-28.01 41.08-28.01Q46.96-28.01 49.27-26.5L49.27-26.5Q50.86-25.49 51.72-23.84 52.58-22.18 52.58-20.2L52.58-20.2Q52.58-16.21 50.57-14.03L50.57-14.03Q49.31-12.73 47.25-12.05L47.25-12.05Q48.89-11.47 49.73-10.82 50.57-10.16 51.24-8.9L51.24-8.9Q51.74-7.9 51.98-6.97 52.21-6.05 52.33-4.24L52.33-4.24Q52.58-1.22 53 0L53 0 46.33 0Q46.03-0.97 45.7-3.99L45.7-3.99Q45.49-6.43 44.84-7.73 44.18-9.03 42.88-9.79L42.88-9.79Q41.24-10.67 38.14-10.63L38.14-10.63ZM33.35-23.02L33.35-15.62 41.71-15.62Q43.81-15.62 44.69-16.25L44.69-16.25Q46.03-17.18 46.03-19.49L46.03-19.49Q46.03-22.05 44.02-22.76L44.02-22.76Q43.3-23.02 41.71-23.02L41.71-23.02 33.35-23.02ZM61.61 0L54.64 0 66.23-28.01 73.08-28.01 84.67 0 77.7 0 74.97-6.47 64.34-6.47 61.61 0ZM73.67-11.47L69.68-21.25 65.69-11.47 73.67-11.47ZM104.83 0L93.41-20.54 93.41 0 87.7 0 87.7-28.01 95.34-28.01 106.47-7.14 106.47-28.01 112.14-28.01 112.14 0 104.83 0ZM131.8 0L117.73 0 117.73-5 130.54-5Q133.6-5 134.61-5.59L134.61-5.59Q136.08-6.47 136.08-8.23L136.08-8.23Q136.08-10.29 134.36-11.21L134.36-11.21Q133.39-11.76 131.25-11.76L131.25-11.76 126.04-11.76Q121.3-11.76 119.2-13.48L119.2-13.48Q117.89-14.57 117.16-16.21 116.42-17.85 116.42-19.74L116.42-19.74Q116.42-22.68 118.15-25.12L118.15-25.12Q119.83-27.47 123.52-27.89L123.52-27.89Q124.78-28.01 127.26-28.01L127.26-28.01 141.16-28.01 141.16-23.02 128.6-23.02Q125.79-22.97 124.87-22.76L124.87-22.76Q122.98-22.3 122.98-19.91L122.98-19.91Q122.98-17.89 124.57-17.22L124.57-17.22Q125.62-16.72 128.1-16.72L128.1-16.72 132.59-16.72Q136.04-16.72 137.72-16.13L137.72-16.13Q140.7-15.12 141.83-12.6L141.83-12.6Q142.72-10.58 142.72-8.27L142.72-8.27Q142.72-5.71 141.54-3.7L141.54-3.7Q139.9-0.84 136.63-0.25L136.63-0.25Q135.03 0 131.8 0L131.8 0Z" transform="translate(-0.17000001668930054, 28.010000228881836)"></path></g> </g></g> </g></g></g><mask id="bc1ceeff-3a23-4855-a8d5-80e84eafc6b6"><g fill="white"><g><rect fill-opacity="1" stroke-width="2" x="0" y="0" width="93.99999999999999" height="95.690857451162" class="image-rect"></rect> <svg x="0" y="0" width="93.99999999999999" height="95.690857451162" class="image-svg-svg primary" style="overflow: visible;" filter="url(#colorsf3894769693)"><svg xmlns="http://www.w3.org/2000/svg" viewBox="0.47827911376953125 0.5585556030273438 133.09857177734375 135.49234008789062"><path d="M33.218 35.656C64.87 2.88 105.664-9.072 124.337 8.959c10.944 10.569 11.859 29.092 4.369 49.214 4.88-14.783 3.86-28.39-4.198-37.03-15.443-16.56-50.883-8.612-79.157 17.754-28.274 26.366-38.676 61.165-23.233 77.725 15.443 16.561 50.883 8.612 79.157-17.754 6.008-5.603 11.21-11.586 15.527-17.695-4.488 6.756-9.83 13.427-15.966 19.78-31.65 32.776-72.446 44.729-91.118 26.697-18.672-18.031-8.15-59.219 23.5-91.994z" fill-rule="evenodd"></path></svg></svg> <defs> </defs></g></g> <g transform="translate(-7.530006408691406,42.03942680358887)" fill="black" stroke="black" stroke-width="6" stroke-linejoin="round"><g fill-rule="" class="tp-name"><g transform="scale(1.2000000000000002)"><g><path d="M9.07 0L9.07-23.02 0.17-23.02 0.17-28.01 24.32-28.01 24.32-23.02 15.04-23.02 15.04 0 9.07 0ZM38.14-10.63L33.35-10.63 33.35 0 27.38 0 27.38-28.01 41.08-28.01Q46.96-28.01 49.27-26.5L49.27-26.5Q50.86-25.49 51.72-23.84 52.58-22.18 52.58-20.2L52.58-20.2Q52.58-16.21 50.57-14.03L50.57-14.03Q49.31-12.73 47.25-12.05L47.25-12.05Q48.89-11.47 49.73-10.82 50.57-10.16 51.24-8.9L51.24-8.9Q51.74-7.9 51.98-6.97 52.21-6.05 52.33-4.24L52.33-4.24Q52.58-1.22 53 0L53 0 46.33 0Q46.03-0.97 45.7-3.99L45.7-3.99Q45.49-6.43 44.84-7.73 44.18-9.03 42.88-9.79L42.88-9.79Q41.24-10.67 38.14-10.63L38.14-10.63ZM33.35-23.02L33.35-15.62 41.71-15.62Q43.81-15.62 44.69-16.25L44.69-16.25Q46.03-17.18 46.03-19.49L46.03-19.49Q46.03-22.05 44.02-22.76L44.02-22.76Q43.3-23.02 41.71-23.02L41.71-23.02 33.35-23.02ZM61.61 0L54.64 0 66.23-28.01 73.08-28.01 84.67 0 77.7 0 74.97-6.47 64.34-6.47 61.61 0ZM73.67-11.47L69.68-21.25 65.69-11.47 73.67-11.47ZM104.83 0L93.41-20.54 93.41 0 87.7 0 87.7-28.01 95.34-28.01 106.47-7.14 106.47-28.01 112.14-28.01 112.14 0 104.83 0ZM131.8 0L117.73 0 117.73-5 130.54-5Q133.6-5 134.61-5.59L134.61-5.59Q136.08-6.47 136.08-8.23L136.08-8.23Q136.08-10.29 134.36-11.21L134.36-11.21Q133.39-11.76 131.25-11.76L131.25-11.76 126.04-11.76Q121.3-11.76 119.2-13.48L119.2-13.48Q117.89-14.57 117.16-16.21 116.42-17.85 116.42-19.74L116.42-19.74Q116.42-22.68 118.15-25.12L118.15-25.12Q119.83-27.47 123.52-27.89L123.52-27.89Q124.78-28.01 127.26-28.01L127.26-28.01 141.16-28.01 141.16-23.02 128.6-23.02Q125.79-22.97 124.87-22.76L124.87-22.76Q122.98-22.3 122.98-19.91L122.98-19.91Q122.98-17.89 124.57-17.22L124.57-17.22Q125.62-16.72 128.1-16.72L128.1-16.72 132.59-16.72Q136.04-16.72 137.72-16.13L137.72-16.13Q140.7-15.12 141.83-12.6L141.83-12.6Q142.72-10.58 142.72-8.27L142.72-8.27Q142.72-5.71 141.54-3.7L141.54-3.7Q139.9-0.84 136.63-0.25L136.63-0.25Q135.03 0 131.8 0L131.8 0Z" transform="translate(-0.17000001668930054, 28.010000228881836)"></path></g> </g></g> </g></mask><defs v-gra="od"></defs></g></svg>